<?xml version="1.0" encoding="utf-8"?>
<!-- Generator: Adobe Illustrator 19.1.0, SVG Export Plug-In . SVG Version: 6.00 Build 0)  -->
<svg version="1.1" id="Layer_1" xmlns="http://www.w3.org/2000/svg" xmlns:xlink="http://www.w3.org/1999/xlink" x="0px" y="0px"
	 viewBox="0 0 336.8 133.7" style="enable-background:new 0 0 336.8 133.7;" xml:space="preserve">
<style type="text/css">
	.st0{fill:#F4CA43;}
	.st1{fill:#F4B373;}
	.st2{fill:#FF1D25;}
	.st3{fill-rule:evenodd;clip-rule:evenodd;fill:none;}
	.st4{fill:#9B9A8F;}
	.st5{fill:#F2BD13;}
	.st6{fill:#848484;}
	.st7{fill:#FDF4D9;}
</style>
<g id="XMLID_362_">
	<g id="XMLID_282_">
		<rect id="XMLID_359_" x="33.5" y="0.1" class="st0" width="264.7" height="133"/>
		<polygon id="XMLID_358_" class="st1" points="298.2,133.1 298.1,0 336.5,68.2 		"/>
		<path id="XMLID_357_" class="st2" d="M0,106.8l0-80.4C0,11.8,13.7,0.2,28.3,0.1l2.2,0C45.3,0,57.1,11.8,57.1,26.3v80.4
			c0,14.5-11.8,26.3-26.3,26.3h-4.5C11.8,133.1,0,121.2,0,106.8z"/>
		<rect id="XMLID_354_" x="19.9" y="0" class="st3" width="44.7" height="133.7"/>
		<rect id="XMLID_350_" x="28.6" y="0.1" class="st4" width="33" height="133.3"/>
		<rect id="XMLID_344_" x="61.6" y="66.9" class="st5" width="236.6" height="66.2"/>
		<polygon id="XMLID_343_" class="st6" points="322.7,91.8 322.7,43.3 336.8,68.2 		"/>
		<polygon id="XMLID_284_" class="st6" points="322.3,92.3 322,42.5 336.8,68.2 		"/>
	</g>
	<g id="XMLID_262_">
		<g id="XMLID_436_">
			<path id="XMLID_408_" class="st7" d="M93.1,89.1v6.7h-2.4v-18H96c1.1,0,2.1,0.1,3,0.4c0.8,0.3,1.5,0.6,2.1,1.1
				c0.6,0.5,1,1.1,1.2,1.8c0.3,0.7,0.4,1.5,0.4,2.3c0,0.8-0.1,1.6-0.4,2.3s-0.7,1.3-1.3,1.8c-0.6,0.5-1.3,0.9-2.1,1.2
				c-0.8,0.3-1.8,0.4-2.9,0.4H93.1z M93.1,87.2H96c0.7,0,1.3-0.1,1.8-0.3c0.5-0.2,1-0.4,1.3-0.8s0.6-0.7,0.8-1.2
				c0.2-0.5,0.3-1,0.3-1.5c0-1.1-0.4-2-1.1-2.7s-1.8-1-3.2-1h-2.9V87.2z"/>
			<path id="XMLID_438_" class="st7" d="M118.2,77.9v2h-8.7v6h7v1.9h-7v6.1h8.7l0,2h-11.1v-18H118.2z"/>
			<path id="XMLID_440_" class="st7" d="M124.4,77.9c0.1,0,0.1,0,0.2,0.1s0.1,0.1,0.2,0.1c0.1,0.1,0.1,0.1,0.2,0.2l10.4,13.5
				c0-0.2,0-0.4,0-0.6s0-0.4,0-0.6V77.9h2.1v18h-1.2c-0.2,0-0.4,0-0.5-0.1c-0.1-0.1-0.3-0.2-0.4-0.3L125,81.9c0,0.2,0,0.4,0,0.6
				c0,0.2,0,0.4,0,0.6v12.8h-2.1v-18h1.3C124.2,77.9,124.3,77.9,124.4,77.9z"/>
			<path id="XMLID_442_" class="st7" d="M156.1,92.1c0.1,0,0.3,0.1,0.4,0.2l1,1c-0.7,0.9-1.6,1.5-2.7,2c-1.1,0.5-2.3,0.7-3.8,0.7
				c-1.3,0-2.5-0.2-3.5-0.7c-1.1-0.4-2-1.1-2.7-1.9c-0.7-0.8-1.3-1.8-1.7-2.9c-0.4-1.1-0.6-2.4-0.6-3.7s0.2-2.6,0.6-3.7
				s1-2.1,1.8-2.9c0.8-0.8,1.7-1.4,2.8-1.9c1.1-0.4,2.3-0.7,3.6-0.7c1.3,0,2.4,0.2,3.4,0.6c1,0.4,1.8,1,2.6,1.7l-0.8,1.1
				c0,0.1-0.1,0.2-0.2,0.2c-0.1,0.1-0.2,0.1-0.3,0.1c-0.2,0-0.3-0.1-0.6-0.2c-0.2-0.2-0.5-0.3-0.9-0.5s-0.8-0.4-1.3-0.5
				s-1.2-0.2-2-0.2c-0.9,0-1.8,0.2-2.6,0.5c-0.8,0.3-1.4,0.8-2,1.4c-0.6,0.6-1,1.4-1.3,2.2c-0.3,0.9-0.5,1.9-0.5,3
				c0,1.1,0.2,2.1,0.5,3c0.3,0.9,0.8,1.6,1.3,2.2c0.6,0.6,1.2,1.1,2,1.4c0.8,0.3,1.6,0.5,2.5,0.5c0.5,0,1,0,1.5-0.1
				c0.4-0.1,0.8-0.2,1.2-0.3s0.7-0.3,1-0.5c0.3-0.2,0.6-0.4,0.9-0.7C155.8,92.2,155.9,92.1,156.1,92.1z"/>
			<path id="XMLID_682_" class="st7" d="M163.9,95.9h-2.4v-18h2.4V95.9z"/>
			<path id="XMLID_684_" class="st7" d="M172.2,93.8h7.8v2h-10.2v-18h2.4V93.8z"/>
			<path id="XMLID_686_" class="st7" d="M197.1,77.7c0.7,0,1.3,0.1,1.8,0.3c0.5,0.2,1,0.5,1.4,0.8c0.4,0.4,0.7,0.8,0.9,1.2
				s0.4,0.9,0.4,1.4l-1.4,0.3c-0.3,0.1-0.5-0.1-0.6-0.4c-0.1-0.2-0.2-0.4-0.3-0.7c-0.1-0.2-0.3-0.4-0.5-0.6s-0.5-0.4-0.7-0.5
				s-0.6-0.2-1-0.2c-0.4,0-0.8,0.1-1.1,0.2c-0.3,0.1-0.6,0.3-0.9,0.6c-0.2,0.2-0.4,0.5-0.5,0.8c-0.1,0.3-0.2,0.7-0.2,1
				c0,0.3,0,0.6,0.1,0.8s0.2,0.5,0.3,0.8c0.1,0.3,0.3,0.6,0.6,0.8c0.2,0.3,0.5,0.6,0.8,0.9l5.2,5.3c0.3-0.6,0.6-1.2,0.8-1.8
				c0.2-0.6,0.3-1.2,0.4-1.8c0-0.2,0.1-0.3,0.2-0.4c0.1-0.1,0.2-0.1,0.4-0.1h1.4c0,1-0.2,1.9-0.5,2.8c-0.3,0.9-0.7,1.8-1.3,2.6
				l3.8,3.8h-2.2c-0.2,0-0.4,0-0.6-0.1c-0.2-0.1-0.3-0.2-0.5-0.4l-1.8-1.8c-0.8,0.8-1.7,1.4-2.7,1.8c-1,0.4-2.2,0.7-3.4,0.7
				c-0.7,0-1.3-0.1-2-0.3c-0.6-0.2-1.2-0.6-1.7-1c-0.5-0.4-0.9-1-1.2-1.6s-0.5-1.3-0.5-2.1c0-0.6,0.1-1.1,0.3-1.7
				c0.2-0.5,0.5-1,0.8-1.4c0.3-0.4,0.8-0.8,1.2-1.2c0.5-0.4,1-0.7,1.6-0.9c-0.5-0.6-0.9-1.3-1.1-1.9s-0.4-1.2-0.4-1.9
				c0-0.6,0.1-1.2,0.3-1.7s0.5-1,1-1.4c0.4-0.4,0.9-0.7,1.5-0.9S196.3,77.7,197.1,77.7z M195.6,94.2c0.9,0,1.8-0.2,2.5-0.5
				c0.7-0.3,1.4-0.8,2-1.4l-5.3-5.4c-0.9,0.5-1.6,1-2,1.7c-0.5,0.7-0.7,1.4-0.7,2.2c0,0.5,0.1,1,0.3,1.4c0.2,0.4,0.5,0.8,0.8,1
				c0.3,0.3,0.7,0.5,1.1,0.6S195.1,94.2,195.6,94.2z"/>
			<path id="XMLID_689_" class="st7" d="M230.5,92.1c0.1,0,0.3,0.1,0.4,0.2l1,1c-0.7,0.9-1.6,1.5-2.7,2c-1.1,0.5-2.3,0.7-3.8,0.7
				c-1.3,0-2.5-0.2-3.5-0.7c-1.1-0.4-2-1.1-2.7-1.9c-0.7-0.8-1.3-1.8-1.7-2.9c-0.4-1.1-0.6-2.4-0.6-3.7s0.2-2.6,0.6-3.7
				s1-2.1,1.8-2.9c0.8-0.8,1.7-1.4,2.8-1.9c1.1-0.4,2.3-0.7,3.6-0.7c1.3,0,2.4,0.2,3.4,0.6c1,0.4,1.8,1,2.6,1.7l-0.8,1.1
				c0,0.1-0.1,0.2-0.2,0.2c-0.1,0.1-0.2,0.1-0.3,0.1c-0.2,0-0.3-0.1-0.6-0.2c-0.2-0.2-0.5-0.3-0.9-0.5s-0.8-0.4-1.3-0.5
				s-1.2-0.2-2-0.2c-0.9,0-1.8,0.2-2.6,0.5c-0.8,0.3-1.4,0.8-2,1.4c-0.6,0.6-1,1.4-1.3,2.2c-0.3,0.9-0.5,1.9-0.5,3
				c0,1.1,0.2,2.1,0.5,3c0.3,0.9,0.8,1.6,1.3,2.2c0.6,0.6,1.2,1.1,2,1.4c0.8,0.3,1.6,0.5,2.5,0.5c0.5,0,1,0,1.5-0.1
				c0.4-0.1,0.8-0.2,1.2-0.3s0.7-0.3,1-0.5c0.3-0.2,0.6-0.4,0.9-0.7C230.3,92.2,230.4,92.1,230.5,92.1z"/>
			<path id="XMLID_691_" class="st7" d="M252.3,86.9c0,1.3-0.2,2.6-0.6,3.7c-0.4,1.1-1,2.1-1.8,2.9c-0.8,0.8-1.7,1.4-2.8,1.9
				c-1.1,0.4-2.3,0.7-3.6,0.7c-1.3,0-2.5-0.2-3.6-0.7s-2-1.1-2.8-1.9c-0.8-0.8-1.4-1.8-1.8-2.9s-0.6-2.4-0.6-3.7s0.2-2.6,0.6-3.7
				s1-2.1,1.8-2.9c0.8-0.8,1.7-1.4,2.8-1.9s2.3-0.7,3.6-0.7c1.3,0,2.5,0.2,3.6,0.7c1.1,0.5,2,1.1,2.8,1.9c0.8,0.8,1.4,1.8,1.8,2.9
				C252.1,84.3,252.3,85.5,252.3,86.9z M249.8,86.9c0-1.1-0.2-2.1-0.5-3c-0.3-0.9-0.7-1.6-1.3-2.2s-1.2-1.1-2-1.4
				c-0.8-0.3-1.7-0.5-2.6-0.5c-1,0-1.8,0.2-2.6,0.5c-0.8,0.3-1.5,0.8-2,1.4s-1,1.3-1.3,2.2c-0.3,0.9-0.5,1.9-0.5,3s0.2,2.1,0.5,3
				c0.3,0.9,0.7,1.6,1.3,2.2s1.2,1.1,2,1.4c0.8,0.3,1.7,0.5,2.6,0.5c1,0,1.9-0.2,2.6-0.5c0.8-0.3,1.5-0.8,2-1.4s1-1.3,1.3-2.2
				C249.6,89,249.8,88,249.8,86.9z"/>
			<path id="XMLID_694_" class="st7" d="M255.5,94.5c0-0.2,0-0.4,0.1-0.6s0.2-0.4,0.3-0.5c0.1-0.1,0.3-0.3,0.5-0.3
				c0.2-0.1,0.4-0.1,0.6-0.1c0.2,0,0.4,0,0.6,0.1c0.2,0.1,0.4,0.2,0.5,0.3s0.3,0.3,0.3,0.5s0.1,0.4,0.1,0.6c0,0.2,0,0.4-0.1,0.6
				c-0.1,0.2-0.2,0.4-0.3,0.5c-0.1,0.1-0.3,0.3-0.5,0.3c-0.2,0.1-0.4,0.1-0.6,0.1c-0.2,0-0.4,0-0.6-0.1c-0.2-0.1-0.4-0.2-0.5-0.3
				c-0.1-0.1-0.2-0.3-0.3-0.5C255.6,94.9,255.5,94.7,255.5,94.5z"/>
		</g>
	</g>
</g>
</svg>
