<?xml version="1.0" encoding="utf-8"?>
<!-- Generator: Adobe Illustrator 19.1.0, SVG Export Plug-In . SVG Version: 6.00 Build 0)  -->
<svg version="1.1" id="Layer_1" xmlns="http://www.w3.org/2000/svg" xmlns:xlink="http://www.w3.org/1999/xlink" x="0px" y="0px"
	 viewBox="0 0 60 60" style="enable-background:new 0 0 60 60;" xml:space="preserve">
<style type="text/css">
	.st0{fill:#FFFFFF;}
	.st1{fill:#F48020;}
	.st2{fill:#2AA9E0;}
	.st3{fill:#36609F;}
</style>
<g id="XMLID_23_">
	<circle id="XMLID_31_" class="st0" cx="30" cy="30" r="26.7"/>
	<path id="XMLID_24_" class="st3" d="M30,0C13.4,0,0,13.4,0,30c0,16.6,13.4,30,30,30c16.6,0,30-13.4,30-30C60,13.4,46.6,0,30,0z
		 M36.4,30h-4.2c0,6.7,0,15,0,15H26c0,0,0-8.2,0-15h-3v-5.3h3v-3.4c0-2.5,1.2-6.3,6.3-6.3l4.6,0v5.1c0,0-2.8,0-3.3,0
		c-0.5,0-1.3,0.3-1.3,1.4v3.1H37L36.4,30z"/>
</g>
</svg>
