<?xml version="1.0" encoding="utf-8"?>
<!-- Generator: Adobe Illustrator 19.1.0, SVG Export Plug-In . SVG Version: 6.00 Build 0)  -->
<svg version="1.1" id="Layer_1" xmlns="http://www.w3.org/2000/svg" xmlns:xlink="http://www.w3.org/1999/xlink" x="0px" y="0px"
	 viewBox="0 0 60 60" style="enable-background:new 0 0 60 60;" xml:space="preserve">
<style type="text/css">
	.st0{fill:#FFFFFF;}
	.st1{fill:#F48020;}
	.st2{fill:#2AA9E0;}
	.st3{fill:#36609F;}
</style>
<g id="XMLID_33_">
	<circle id="XMLID_50_" class="st0" cx="30" cy="30" r="26.7"/>
	<path id="XMLID_34_" class="st1" d="M30,0C13.4,0,0,13.4,0,30c0,16.6,13.4,30,30,30s30-13.4,30-30C60,13.4,46.6,0,30,0z M19,45
		c-2.2,0-4-1.8-4-4c0-2.2,1.8-4,4-4c2.2,0,4,1.8,4,4C23,43.2,21.2,45,19,45z M29,45c0-3.8-1.5-7.3-4.1-9.9c-2.6-2.7-6.1-4.1-9.9-4.1
		v-5.7c10.9,0,19.7,8.9,19.7,19.8H29z M39.2,45c0-13.4-10.8-24.3-24.1-24.3V15c16.5,0,29.9,13.5,29.9,30H39.2z"/>
</g>
</svg>
