<?xml version="1.0" encoding="utf-8"?>
<!-- Generator: Adobe Illustrator 19.1.0, SVG Export Plug-In . SVG Version: 6.00 Build 0)  -->
<svg version="1.1" id="Layer_1" xmlns="http://www.w3.org/2000/svg" xmlns:xlink="http://www.w3.org/1999/xlink" x="0px" y="0px"
	 viewBox="0 0 60 60" style="enable-background:new 0 0 60 60;" xml:space="preserve">
<style type="text/css">
	.st0{fill:#FFFFFF;}
	.st1{fill:#F48020;}
	.st2{fill:#2AA9E0;}
	.st3{fill:#36609F;}
</style>
<g id="XMLID_32_">
	<circle id="XMLID_62_" class="st0" cx="30" cy="30" r="26.7"/>
	<path id="XMLID_59_" class="st2" d="M30,0C13.4,0,0,13.4,0,30c0,16.6,13.4,30,30,30c16.6,0,30-13.4,30-30C60,13.4,46.6,0,30,0z
		 M41.9,23.9c0,0.3,0,0.5,0,0.8c0,8.1-6.2,17.5-17.5,17.5c-3.5,0-6.7-1-9.4-2.8c0.5,0.1,1,0.1,1.5,0.1c2.9,0,5.5-1,7.6-2.6
		c-2.7-0.1-5-1.8-5.7-4.3c0.4,0.1,0.8,0.1,1.2,0.1c0.6,0,1.1-0.1,1.6-0.2c-2.8-0.6-4.9-3.1-4.9-6c0,0,0-0.1,0-0.1
		c0.8,0.5,1.8,0.7,2.8,0.8c-1.7-1.1-2.7-3-2.7-5.1c0-1.1,0.3-2.2,0.8-3.1c3,3.7,7.6,6.2,12.7,6.4c-0.1-0.5-0.2-0.9-0.2-1.4
		c0-3.4,2.8-6.2,6.2-6.2c1.8,0,3.4,0.7,4.5,1.9c1.4-0.3,2.7-0.8,3.9-1.5c-0.5,1.4-1.4,2.6-2.7,3.4c1.2-0.1,2.4-0.5,3.5-1
		C44.2,21.9,43.1,23,41.9,23.9z"/>
</g>
</svg>
